<?xml version="1.0" encoding="UTF-8"?>
<svg xmlns="http://www.w3.org/2000/svg" width="865" height="264" viewBox="0 0 865 264" style="background-color: #FAF8F5; font-family: -apple-system, BlinkMacSystemFont, &quot;Segoe UI&quot;, Roboto, &quot;PingFang SC&quot;, sans-serif;">
  <defs>
    <marker id="flow-arrow-material-cn-59-qincai-niurou_p0" viewBox="0 0 10 10" refX="8" refY="5" markerWidth="5" markerHeight="5" orient="auto">
      <path d="M 0 1 L 9 5 L 0 9 z" fill="#059669" />
    </marker>
    <marker id="flow-arrow-order-cn-59-qincai-niurou_p0" viewBox="0 0 10 10" refX="8" refY="5" markerWidth="5" markerHeight="5" orient="auto">
      <path d="M 0 1 L 9 5 L 0 9 z" fill="#64748B" />
    </marker>
  </defs>
  <rect x="16" y="16" width="833" height="232" fill="#FFFFFF" stroke="#CBD5E1" stroke-width="1.5" />
  <g class="v3-header-group">
    <rect x="16" y="16" width="833" height="28" fill="#FFFFFF" stroke="#CBD5E1" stroke-width="1.2" />
    <text x="28" y="30" dominant-baseline="central" font-size="12" font-weight="600" fill="#0F172A">中式炒锅</text>
    <text x="837" y="30" text-anchor="end" dominant-baseline="central" font-size="11" font-weight="700" fill="#0F766E">容器大小</text>
    <rect x="16" y="44" width="320" height="28" fill="#F8FAFC" stroke="#CBD5E1" stroke-width="1.2" />
    <text x="176" y="58" text-anchor="middle" dominant-baseline="central" font-size="13.5" font-weight="700" fill="#334155">材料</text>
    <rect x="336" y="44" width="513" height="28" fill="#FFFFFF" stroke="#CBD5E1" stroke-width="1.2" />
    <text x="348" y="58" dominant-baseline="central" font-size="12" font-weight="600" fill="#0F172A">牛肉切细丝上浆</text>
    <text x="837" y="58" text-anchor="end" dominant-baseline="central" font-size="11" font-weight="700" fill="#B45309">预热等预备处理</text>
  </g>
  <g class="v3-ingredients-group">
    <g transform="translate(16, 72)">
      <rect width="320" height="44" fill="#FFFFFF" stroke="#E2E8F0" stroke-width="1.2" />
      <text x="14" y="22" dominant-baseline="central" font-size="12" font-weight="500" fill="#0F172A">
        <tspan font-weight="700" fill="#047857">200 g</tspan>
        <tspan dx="8" font-weight="600" fill="#0F172A">嫩牛肉丝 (上浆)</tspan>
      </text>
    </g>
    <g transform="translate(16, 116)">
      <rect width="320" height="44" fill="#FFFFFF" stroke="#E2E8F0" stroke-width="1.2" />
      <text x="14" y="22" dominant-baseline="central" font-size="12" font-weight="500" fill="#0F172A">
        <tspan font-weight="700" fill="#047857">200 g</tspan>
        <tspan dx="8" font-weight="600" fill="#0F172A">香芹菜段</tspan>
      </text>
    </g>
    <g transform="translate(16, 160)">
      <rect width="320" height="44" fill="#FFFFFF" stroke="#E2E8F0" stroke-width="1.2" />
      <text x="14" y="22" dominant-baseline="central" font-size="12" font-weight="500" fill="#0F172A">
        <tspan font-weight="700" fill="#047857">野山椒+姜丝</tspan>
        <tspan dx="8" font-weight="600" fill="#0F172A">泡野山椒碎与姜丝</tspan>
      </text>
    </g>
    <g transform="translate(16, 204)">
      <rect width="320" height="44" fill="#FFFFFF" stroke="#E2E8F0" stroke-width="1.2" />
      <text x="14" y="22" dominant-baseline="central" font-size="12" font-weight="500" fill="#0F172A">
        <tspan dx="0" font-weight="600" fill="#0F172A">老抽+料酒+盐+鸡精+水淀粉</tspan>
      </text>
    </g>
  </g>
  <g class="v3-flow-waiting-paths">
    <line x1="336" y1="94" x2="352" y2="94" stroke="#CBD5E1" stroke-width="1.3" stroke-dasharray="3 3" />
    <circle cx="349" cy="94" r="2" fill="#94A3B8" />
    <line x1="493" y1="94" x2="509" y2="94" stroke="#CBD5E1" stroke-width="1.3" stroke-dasharray="3 3" />
    <circle cx="506" cy="94" r="2" fill="#94A3B8" />
    <path d="M 336 138 L 340 138 Q 344 138, 344 134 L 344 118 Q 344 114, 348 114 L 497 114 Q 501 114, 501 118 L 501 134 Q 501 138, 505 138 L 509 138" fill="none" stroke="#CBD5E1" stroke-width="1.3" stroke-dasharray="3 3" />
    <circle cx="506" cy="138" r="2" fill="#94A3B8" />
    <path d="M 336 182 L 340 182 Q 344 182, 344 186 L 344 202 Q 344 206, 348 206 L 497 206 Q 501 206, 501 202 L 501 186 Q 501 182, 505 182 L 509 182" fill="none" stroke="#CBD5E1" stroke-width="1.3" stroke-dasharray="3 3" />
    <circle cx="506" cy="182" r="2" fill="#94A3B8" />
    <line x1="336" y1="226" x2="352" y2="226" stroke="#CBD5E1" stroke-width="1.3" stroke-dasharray="3 3" />
    <circle cx="349" cy="226" r="2" fill="#94A3B8" />
    <line x1="493" y1="226" x2="509" y2="226" stroke="#CBD5E1" stroke-width="1.3" stroke-dasharray="3 3" />
    <circle cx="506" cy="226" r="2" fill="#94A3B8" />
  </g>
  <g class="v3-actions-group">
    <g transform="translate(352, 126)">
      <rect width="141" height="68" fill="#FFFFFF" stroke="#E2E8F0" stroke-width="1.2" />
      <g transform="translate(70.5, 34)">
        <text text-anchor="middle" dominant-baseline="central">
          <tspan x="0" dy="-1.16em" font-size="13.5" font-weight="800" fill="#0F172A">牛肉丝滑油变色盛出</tspan>
          <tspan x="0" dy="1.3em" font-size="10.5" font-weight="500" fill="#64748B">Flash Sear Beef</tspan>
          <tspan x="0" dy="1.35em" font-size="10" font-weight="700" fill="#B45309">大火 2m</tspan>
        </text>
      </g>
    </g>
    <g transform="translate(509, 126)">
      <rect width="189" height="68" fill="#FFFFFF" stroke="#E2E8F0" stroke-width="1.2" />
      <g transform="translate(94.5, 34)">
        <text text-anchor="middle" dominant-baseline="central">
          <tspan x="0" dy="-1.16em" font-size="13.5" font-weight="800" fill="#0F172A">爆香野山椒炒芹菜合炒</tspan>
          <tspan x="0" dy="1.3em" font-size="10.5" font-weight="500" fill="#64748B">Stir-Fry Celery &amp; Combine</tspan>
          <tspan x="0" dy="1.35em" font-size="10" font-weight="700" fill="#B45309">大火 2m</tspan>
        </text>
      </g>
    </g>
  </g>
  <g class="v3-intake-rails">
    <line id="rail-b1-c0" x1="352" y1="94" x2="352" y2="126" stroke="#059669" stroke-width="2.5" stroke-linecap="round" />
    <line id="rail-b1-c1" x1="352" y1="194" x2="352" y2="226" stroke="#059669" stroke-width="2.5" stroke-linecap="round" />
    <line id="rail-b2-c0" x1="509" y1="94" x2="509" y2="226" stroke="#059669" stroke-width="2.5" stroke-linecap="round" />
    <line id="feed-b1-i1" x1="344" y1="94" x2="352" y2="94" stroke="#059669" stroke-width="2" />
    <circle cx="352" cy="94" r="3" fill="#059669" />
    <line id="feed-b1-i4" x1="344" y1="226" x2="352" y2="226" stroke="#059669" stroke-width="2" />
    <circle cx="352" cy="226" r="3" fill="#059669" />
    <line id="feed-b2-i1" x1="501" y1="94" x2="509" y2="94" stroke="#059669" stroke-width="2" />
    <circle cx="509" cy="94" r="3" fill="#059669" />
    <line id="feed-b2-i2" x1="501" y1="138" x2="509" y2="138" stroke="#059669" stroke-width="2" />
    <circle cx="509" cy="138" r="3" fill="#059669" />
    <line id="feed-b2-i3" x1="501" y1="182" x2="509" y2="182" stroke="#059669" stroke-width="2" />
    <circle cx="509" cy="182" r="3" fill="#059669" />
    <line id="feed-b2-i4" x1="501" y1="226" x2="509" y2="226" stroke="#059669" stroke-width="2" />
    <circle cx="509" cy="226" r="3" fill="#059669" />
  </g>
  <g transform="translate(714, 72)">
    <rect width="135" height="176" fill="#FFFFFF" stroke="#CBD5E1" stroke-width="1.2" />
    <g transform="translate(67.5, 88)">
      <text text-anchor="middle" dominant-baseline="central" font-size="14" font-weight="800" fill="#065F46" y="-10">辣香鲜嫩 🥩</text>
      <text text-anchor="middle" dominant-baseline="central" font-size="11" font-weight="700" fill="#047857" y="10">出锅装盘 · 趁热享用</text>
    </g>
  </g>
</svg>